<?xml version="1.0" encoding="utf-8" standalone="no"?>
<svg xmlns="http://www.w3.org/2000/svg" version="1.1" viewBox="0 0 960 1536">
  <title>Mr. Chitterwick’s Chart</title>
  <g style="font-size:24px;font-family:serif;stroke:none"
     transform="rotate(90 480,480)">

    <line x1="24" y1="144" x2="1512" y2="144" stroke="#000"/>

    <text x="24" y="120">SOLVER</text>
    <text x="24" y="192">Sir Charles</text>
      <text x="24" y="216">Wildman</text>
    <text x="24" y="288">Mrs. Fielder-</text>
      <text x="24" y="312">Flemming</text>
    <text x="24" y="384">Bradley (1)</text>
    <text x="24" y="480">Bradley (2)</text>
    <text x="24" y="576">Sheringham</text>
    <text x="24" y="672">Miss</text>
      <text x="24" y="696">Dammers</text>
    <text x="24" y="768">Police</text>

    <text x="240" y="120">MOTIVE</text>
    <text x="240" y="192">Gain</text>
    <text x="240" y="288">Elimination</text>
    <text x="240" y="384">Experiment</text>
    <text x="240" y="480">Jealousy</text>
    <text x="240" y="576">Gain</text>
    <text x="240" y="672">Elimination</text>
    <text x="240" y="768">Conviction, or</text>
      <text x="240" y="792">lust of killing</text>

    <text x="456" y="96">ANGLE OF</text>
      <text x="456" y="120">VIEW</text>
    <text x="456" y="192" style="font-style:italic">Cui bono</text>
    <text x="456" y="288" style="font-style:italic">Cherchez la</text>
      <text x="456" y="312" style="font-style:italic">femme</text>
    <text x="456" y="384">Detective-</text>
      <text x="456" y="408">novelist’s</text>
    <text x="456" y="480">Character of</text>
      <text x="456" y="504">Sir Eustace</text>
    <text x="456" y="576">Character of</text>
      <text x="456" y="600">Mr. Bendix</text>
    <text x="456" y="672">Psychology of</text>
      <text x="456" y="696">all participants</text>
    <text x="456" y="768">General</text>

    <text x="672" y="96">SALIENT</text>
      <text x="672" y="120">FEATURE</text>
    <text x="672" y="192">Notepaper</text>
    <text x="672" y="288">Hidden</text>
      <text x="672" y="312">triangle</text>
    <text x="672" y="384">Nitrobenzene</text>
    <text x="672" y="480">Criminological</text>
      <text x="672" y="504">knowledge of</text>
      <text x="672" y="528">murderer</text>
    <text x="672" y="576">Bet</text>
    <text x="672" y="672">Criminal’s</text>
      <text x="672" y="696">character</text>
    <text x="672" y="768">Material clues</text>

    <text x="888" y="96">METHOD OF</text>
      <text x="888" y="120">PROOF</text>
    <text x="888" y="192">Inductive</text>
    <text x="888" y="288">Intuitive and</text>
      <text x="888" y="312">Inductive</text>
    <text x="888" y="384">Scientific</text>
      <text x="888" y="408">deduction</text>
    <text x="888" y="480">Deductive</text>
    <text x="888" y="576">Deductive</text>
      <text x="888" y="600">and Inductive</text>
    <text x="888" y="672">Psychological</text>
      <text x="888" y="696">deduction</text>
    <text x="888" y="768">Routine</text>

    <text x="1104" y="96">PARALLEL</text>
      <text x="1104" y="120">CASE</text>
    <text x="1104" y="192">Marie Lafarge</text>
    <text x="1104" y="288">Molineux</text>
    <text x="1104" y="384">Dr. Wilson</text>
    <text x="1104" y="480">Christina</text>
      <text x="1104" y="504">Edmunds</text>
    <text x="1104" y="576">Carlyle Harris</text>
    <text x="1104" y="672">Tawell</text>
    <text x="1104" y="768">Horwood</text>

    <text x="1320" y="120">CRIMINAL</text>
    <text x="1320" y="192">Lady</text>
      <text x="1320" y="216">Pennefather</text>
    <text x="1320" y="288">Sir Charles</text>
      <text x="1320" y="312">Wildman</text>
    <text x="1320" y="384">Bradley</text>
    <text x="1320" y="480">Woman</text>
      <text x="1320" y="504">unnamed</text>
    <text x="1320" y="576">Bendix</text>
    <text x="1320" y="672">Sir Eustace</text>
      <text x="1320" y="696">Pennefather</text>
    <text x="1320" y="768">Unknown</text>
      <text x="1320" y="792">fanatic or</text>
      <text x="1320" y="816">lunatic</text>

    <text x="648" y="888" style="font-style:italic">Mr. Chitterwick’s Chart</text>

  </g>
</svg>
